<svg width="184" height="53" viewBox="0 0 184 53" fill="none" xmlns="http://www.w3.org/2000/svg">
<path d="M107.077 25.2188L110.715 29.0939L109.841 28.0227L114.087 23.4163L115.096 24.6931L126.704 12.2009H119.494L107.077 25.2188Z" fill="black"/>
<path fill-rule="evenodd" clip-rule="evenodd" d="M110.715 29.0939L114.607 25.2188L115.096 24.6931L114.087 23.4163L109.841 28.0227L110.715 29.0939ZM107.077 40.2395V25.2188V12.2009H100.628V40.2395H107.077Z" fill="black"/>
<path d="M114.607 25.2188L110.715 29.0939L119.815 40.2395H127.385L115.096 24.6931L114.607 25.2188Z" fill="black"/>
<path d="M84.6702 40.7202C82.5072 40.7202 80.4911 40.3731 78.6219 39.6788C76.7793 38.9578 75.1771 37.9431 73.8152 36.6346C72.4533 35.3261 71.3852 33.7907 70.6108 32.0282C69.8631 30.2658 69.4893 28.3298 69.4893 26.2202C69.4893 24.1106 69.8631 22.1746 70.6108 20.4122C71.3852 18.6498 72.4533 17.1143 73.8152 15.8059C75.2038 14.4974 76.8194 13.496 78.6619 12.8017C80.5045 12.0807 82.5206 11.7202 84.7103 11.7202C87.1403 11.7202 89.33 12.1475 91.2793 13.002C93.2554 13.8298 94.911 15.0582 96.2462 16.6871L92.0804 20.5324C91.1191 19.4375 90.051 18.6231 88.876 18.089C87.701 17.5282 86.4193 17.2478 85.0307 17.2478C83.7222 17.2478 82.5206 17.4615 81.4257 17.8887C80.3309 18.316 79.3829 18.9302 78.5818 19.7313C77.7807 20.5324 77.1532 21.4803 76.6992 22.5752C76.272 23.67 76.0583 24.885 76.0583 26.2202C76.0583 27.5554 76.272 28.7704 76.6992 29.8652C77.1532 30.9601 77.7807 31.9081 78.5818 32.7092C79.3829 33.5103 80.3309 34.1245 81.4257 34.5517C82.5206 34.979 83.7222 35.1926 85.0307 35.1926C86.4193 35.1926 87.701 34.9256 88.876 34.3915C90.051 33.8307 91.1191 32.9896 92.0804 31.868L96.2462 35.7133C94.911 37.3422 93.2554 38.5839 91.2793 39.4384C89.33 40.293 87.1269 40.7202 84.6702 40.7202Z" fill="black"/>
<path d="M51.0736 40.7202C48.8572 40.7202 46.801 40.3597 44.9051 39.6387C43.0358 38.9177 41.4069 37.903 40.0184 36.5945C38.6565 35.2861 37.5883 33.7506 36.8139 31.9882C36.0662 30.2257 35.6924 28.3031 35.6924 26.2202C35.6924 24.1373 36.0662 22.2147 36.8139 20.4523C37.5883 18.6898 38.6698 17.1544 40.0584 15.8459C41.447 14.5374 43.0759 13.5227 44.9451 12.8017C46.8144 12.0807 48.8439 11.7202 51.0335 11.7202C53.2499 11.7202 55.2794 12.0807 57.1219 12.8017C58.9912 13.5227 60.6068 14.5374 61.9686 15.8459C63.3572 17.1544 64.4387 18.6898 65.2131 20.4523C65.9875 22.188 66.3747 24.1106 66.3747 26.2202C66.3747 28.3031 65.9875 30.2391 65.2131 32.0282C64.4387 33.7907 63.3572 35.3261 61.9686 36.6346C60.6068 37.9164 58.9912 38.9177 57.1219 39.6387C55.2794 40.3597 53.2633 40.7202 51.0736 40.7202ZM51.0335 35.1926C52.2886 35.1926 53.4369 34.979 54.4783 34.5517C55.5464 34.1245 56.4811 33.5103 57.2822 32.7092C58.0833 31.9081 58.6974 30.9601 59.1247 29.8652C59.5787 28.7704 59.8056 27.5554 59.8056 26.2202C59.8056 24.885 59.5787 23.67 59.1247 22.5752C58.6974 21.4803 58.0833 20.5324 57.2822 19.7313C56.5078 18.9302 55.5865 18.316 54.5184 17.8887C53.4502 17.4615 52.2886 17.2478 51.0335 17.2478C49.7785 17.2478 48.6169 17.4615 47.5487 17.8887C46.5073 18.316 45.586 18.9302 44.7849 19.7313C43.9838 20.5324 43.3563 21.4803 42.9023 22.5752C42.4751 23.67 42.2614 24.885 42.2614 26.2202C42.2614 27.5287 42.4751 28.7437 42.9023 29.8652C43.3563 30.9601 43.9705 31.9081 44.7449 32.7092C45.546 33.5103 46.4806 34.1245 47.5487 34.5517C48.6169 34.979 49.7785 35.1926 51.0335 35.1926Z" fill="black"/>
<path d="M8 40.2395V12.2009H20.1367C22.6469 12.2009 24.8099 12.6148 26.6257 13.4426C28.4415 14.2437 29.8435 15.4053 30.8315 16.9274C31.8195 18.4495 32.3135 20.2653 32.3135 22.3749C32.3135 24.4578 31.8195 26.2603 30.8315 27.7824C29.8435 29.2778 28.4415 30.426 26.6257 31.2271C24.8099 32.0282 22.6469 32.4288 20.1367 32.4288H11.605L14.4889 29.5848V40.2395H8ZM25.8246 40.2395L18.8149 30.0655H25.7445L32.8343 40.2395H25.8246ZM14.4889 30.3058L11.605 27.2616H19.7762C21.779 27.2616 23.2744 26.8344 24.2624 25.9799C25.2505 25.0987 25.7445 23.897 25.7445 22.3749C25.7445 20.8261 25.2505 19.6244 24.2624 18.7699C23.2744 17.9154 21.779 17.4882 19.7762 17.4882H11.605L14.4889 14.4039V30.3058Z" fill="black"/>
<path d="M133.385 40.2395V12.2009H139.874V40.2395H133.385Z" fill="#FB2424"/>
<path d="M145.874 40.2402V12.2002H151.242L167.785 32.389H165.182V12.2002H171.591V40.2402H166.263L149.679 20.0514H152.283V40.2402H145.874Z" fill="#FB2424"/>
</svg>
