<svg width="184" height="53" viewBox="0 0 184 53" fill="none" xmlns="http://www.w3.org/2000/svg">
<rect width="183.591" height="52.04" transform="translate(0.20459 0.47998)" fill="#FB2424"/>
<path d="M107.282 25.4985L110.92 29.3737L110.045 28.3024L114.291 23.6961L115.301 24.9728L126.909 12.4806H119.699L107.282 25.4985Z" fill="black"/>
<path fill-rule="evenodd" clip-rule="evenodd" d="M110.92 29.3737L114.812 25.4985L115.301 24.9728L114.291 23.6961L110.045 28.3024L110.92 29.3737ZM107.282 40.5193V25.4985V12.4806H100.833V40.5193H107.282Z" fill="black"/>
<path d="M114.812 25.4985L110.92 29.3737L120.019 40.5193H127.59L115.301 24.9728L114.812 25.4985Z" fill="black"/>
<path d="M84.8748 41C82.7118 41 80.6957 40.6529 78.8264 39.9586C76.9839 39.2376 75.3817 38.2228 74.0198 36.9144C72.6579 35.6059 71.5898 34.0704 70.8154 32.308C70.0677 30.5456 69.6938 28.6096 69.6938 26.5C69.6938 24.3904 70.0677 22.4544 70.8154 20.692C71.5898 18.9296 72.6579 17.3941 74.0198 16.0856C75.4084 14.7772 77.024 13.7758 78.8665 13.0815C80.709 12.3605 82.7252 12 84.9148 12C87.3449 12 89.5346 12.4273 91.4839 13.2818C93.46 14.1096 95.1156 15.3379 96.4508 16.9669L92.285 20.8122C91.3237 19.7173 90.2555 18.9029 89.0806 18.3688C87.9056 17.808 86.6239 17.5276 85.2353 17.5276C83.9268 17.5276 82.7252 17.7413 81.6303 18.1685C80.5355 18.5958 79.5875 19.2099 78.7864 20.011C77.9853 20.8122 77.3578 21.7601 76.9038 22.855C76.4765 23.9498 76.2629 25.1648 76.2629 26.5C76.2629 27.8352 76.4765 29.0502 76.9038 30.145C77.3578 31.2399 77.9853 32.1878 78.7864 32.989C79.5875 33.7901 80.5355 34.4042 81.6303 34.8315C82.7252 35.2587 83.9268 35.4724 85.2353 35.4724C86.6239 35.4724 87.9056 35.2053 89.0806 34.6713C90.2555 34.1105 91.3237 33.2693 92.285 32.1478L96.4508 35.9931C95.1156 37.622 93.46 38.8637 91.4839 39.7182C89.5346 40.5727 87.3315 41 84.8748 41Z" fill="black"/>
<path d="M51.2782 41C49.0618 41 47.0056 40.6395 45.1097 39.9185C43.2404 39.1975 41.6115 38.1828 40.2229 36.8743C38.8611 35.5658 37.7929 34.0304 37.0185 32.268C36.2708 30.5055 35.897 28.5829 35.897 26.5C35.897 24.4171 36.2708 22.4945 37.0185 20.732C37.7929 18.9696 38.8744 17.4342 40.263 16.1257C41.6516 14.8172 43.2805 13.8025 45.1497 13.0815C47.019 12.3605 49.0484 12 51.2381 12C53.4545 12 55.484 12.3605 57.3265 13.0815C59.1958 13.8025 60.8113 14.8172 62.1732 16.1257C63.5618 17.4342 64.6433 18.9696 65.4177 20.732C66.1921 22.4678 66.5793 24.3904 66.5793 26.5C66.5793 28.5829 66.1921 30.5189 65.4177 32.308C64.6433 34.0704 63.5618 35.6059 62.1732 36.9144C60.8113 38.1961 59.1958 39.1975 57.3265 39.9185C55.484 40.6395 53.4679 41 51.2782 41ZM51.2381 35.4724C52.4932 35.4724 53.6414 35.2587 54.6829 34.8315C55.751 34.4042 56.6856 33.7901 57.4868 32.989C58.2879 32.1878 58.902 31.2399 59.3293 30.145C59.7833 29.0502 60.0102 27.8352 60.0102 26.5C60.0102 25.1648 59.7833 23.9498 59.3293 22.855C58.902 21.7601 58.2879 20.8122 57.4868 20.011C56.7124 19.2099 55.7911 18.5958 54.7229 18.1685C53.6548 17.7413 52.4932 17.5276 51.2381 17.5276C49.9831 17.5276 48.8215 17.7413 47.7533 18.1685C46.7119 18.5958 45.7906 19.2099 44.9895 20.011C44.1884 20.8122 43.5609 21.7601 43.1069 22.855C42.6797 23.9498 42.466 25.1648 42.466 26.5C42.466 27.8085 42.6797 29.0235 43.1069 30.145C43.5609 31.2399 44.1751 32.1878 44.9495 32.989C45.7506 33.7901 46.6852 34.4042 47.7533 34.8315C48.8215 35.2587 49.9831 35.4724 51.2381 35.4724Z" fill="black"/>
<path d="M8.20459 40.5193V12.4806H20.3413C22.8515 12.4806 25.0144 12.8945 26.8303 13.7223C28.6461 14.5234 30.0481 15.685 31.0361 17.2071C32.0241 18.7292 32.5181 20.545 32.5181 22.6546C32.5181 24.7375 32.0241 26.54 31.0361 28.0621C30.0481 29.5575 28.6461 30.7057 26.8303 31.5068C25.0144 32.3079 22.8515 32.7085 20.3413 32.7085H11.8096L14.6935 29.8646V40.5193H8.20459ZM26.0292 40.5193L19.0195 30.3452H25.9491L33.0388 40.5193H26.0292ZM14.6935 30.5856L11.8096 27.5414H19.9808C21.9836 27.5414 23.479 27.1141 24.467 26.2596C25.4551 25.3784 25.9491 24.1767 25.9491 22.6546C25.9491 21.1058 25.4551 19.9042 24.467 19.0497C23.479 18.1951 21.9836 17.7679 19.9808 17.7679H11.8096L14.6935 14.6836V30.5856Z" fill="black"/>
<rect width="46.2056" height="36.04" transform="translate(129.59 8.47998)" fill="white"/>
<path d="M133.59 40.5193V12.4806H140.079V40.5193H133.59Z" fill="#FB2424"/>
<path d="M146.078 40.52V12.48H151.446L167.99 32.6688H165.386V12.48H171.795V40.52H166.468L149.884 20.3312H152.488V40.52H146.078Z" fill="#FB2424"/>
</svg>
