<svg width="96" height="18" viewBox="0 0 96 18" fill="none" xmlns="http://www.w3.org/2000/svg">
<path fill-rule="evenodd" clip-rule="evenodd" d="M60.9655 17.2832V8.04675V0.0418701H57V17.2832H60.9655Z" fill="black"/>
<path d="M60.9655 8.04675L63.2028 10.4296L68.798 17.2832H73.4531L65.8964 7.72347L73.0344 0.0418701H68.6009L60.9655 8.04675Z" fill="black"/>
<path d="M47.1452 17.9581C45.8152 17.9581 44.5755 17.7447 43.426 17.3178C42.293 16.8744 41.3078 16.2504 40.4704 15.4458C39.633 14.6413 38.9761 13.6971 38.5 12.6133C38.0402 11.5296 37.8103 10.3391 37.8103 9.04194C37.8103 7.74474 38.0402 6.55427 38.5 5.47053C38.9761 4.38679 39.633 3.44263 40.4704 2.63803C41.3242 1.83344 42.3177 1.21768 43.4507 0.790752C44.5837 0.347406 45.8234 0.125732 47.1699 0.125732C48.6641 0.125732 50.0106 0.388457 51.2092 0.913905C52.4243 1.42293 53.4424 2.17827 54.2634 3.1799L51.7019 5.54442C51.1107 4.87119 50.4539 4.37037 49.7314 4.04197C49.0089 3.69714 48.2208 3.52473 47.3669 3.52473C46.5623 3.52473 45.8234 3.65609 45.1502 3.91881C44.4769 4.18154 43.894 4.55921 43.4014 5.05181C42.9088 5.54442 42.5229 6.12734 42.2438 6.80057C41.9811 7.4738 41.8497 8.22093 41.8497 9.04194C41.8497 9.86296 41.9811 10.6101 42.2438 11.2833C42.5229 11.9565 42.9088 12.5395 43.4014 13.0321C43.894 13.5247 44.4769 13.9023 45.1502 14.1651C45.8234 14.4278 46.5623 14.5592 47.3669 14.5592C48.2208 14.5592 49.0089 14.3949 49.7314 14.0665C50.4539 13.7217 51.1107 13.2045 51.7019 12.5148L54.2634 14.8793C53.4424 15.881 52.4243 16.6445 51.2092 17.17C50.0106 17.6954 48.6559 17.9581 47.1452 17.9581Z" fill="black"/>
<path d="M26.4865 17.9581C25.1236 17.9581 23.8593 17.7365 22.6934 17.2931C21.544 16.8498 20.5424 16.2258 19.6885 15.4212C18.8511 14.6166 18.1943 13.6725 17.7181 12.5887C17.2583 11.505 17.0284 10.3227 17.0284 9.04194C17.0284 7.76116 17.2583 6.5789 17.7181 5.49516C18.1943 4.41142 18.8593 3.46726 19.7132 2.66266C20.567 1.85807 21.5686 1.2341 22.7181 0.790752C23.8675 0.347406 25.1154 0.125732 26.4619 0.125732C27.8248 0.125732 29.0727 0.347406 30.2057 0.790752C31.3551 1.2341 32.3486 1.85807 33.186 2.66266C34.0398 3.46726 34.7049 4.41142 35.1811 5.49516C35.6572 6.56248 35.8953 7.74474 35.8953 9.04194C35.8953 10.3227 35.6572 11.5132 35.1811 12.6133C34.7049 13.6971 34.0398 14.6413 33.186 15.4458C32.3486 16.234 31.3551 16.8498 30.2057 17.2931C29.0727 17.7365 27.833 17.9581 26.4865 17.9581ZM26.4619 14.5592C27.2336 14.5592 27.9397 14.4278 28.5801 14.1651C29.2369 13.9023 29.8116 13.5247 30.3042 13.0321C30.7968 12.5395 31.1745 11.9565 31.4372 11.2833C31.7164 10.6101 31.8559 9.86296 31.8559 9.04194C31.8559 8.22093 31.7164 7.4738 31.4372 6.80057C31.1745 6.12734 30.7968 5.54442 30.3042 5.05181C29.828 4.55921 29.2615 4.18154 28.6047 3.91881C27.9479 3.65609 27.2336 3.52473 26.4619 3.52473C25.6901 3.52473 24.9759 3.65609 24.319 3.91881C23.6787 4.18154 23.1122 4.55921 22.6195 5.05181C22.1269 5.54442 21.7411 6.12734 21.4619 6.80057C21.1992 7.4738 21.0678 8.22093 21.0678 9.04194C21.0678 9.84653 21.1992 10.5937 21.4619 11.2833C21.7411 11.9565 22.1187 12.5395 22.5949 13.0321C23.0875 13.5247 23.6622 13.9023 24.319 14.1651C24.9759 14.4278 25.6901 14.5592 26.4619 14.5592Z" fill="black"/>
<path d="M0 17.6626V0.421265H7.46302C9.00652 0.421265 10.3366 0.675779 11.4531 1.18481C12.5697 1.67742 13.4318 2.3917 14.0393 3.32765C14.6469 4.26361 14.9507 5.38019 14.9507 6.67739C14.9507 7.95817 14.6469 9.06654 14.0393 10.0025C13.4318 10.922 12.5697 11.6281 11.4531 12.1207C10.3366 12.6133 9.00652 12.8596 7.46302 12.8596H2.21674L3.99013 11.1109V17.6626H0ZM10.9605 17.6626L6.65021 11.4064H10.9113L15.2709 17.6626H10.9605ZM3.99013 11.5542L2.21674 9.6823H7.24134C8.47286 9.6823 9.3924 9.41958 9.99995 8.89413C10.6075 8.35226 10.9113 7.61335 10.9113 6.67739C10.9113 5.72501 10.6075 4.9861 9.99995 4.46065C9.3924 3.9352 8.47286 3.67248 7.24134 3.67248H2.21674L3.99013 1.77594V11.5542Z" fill="black"/>
<path d="M90.5075 4.21432C91.5584 4.21432 92.4944 4.42779 93.3154 4.85471C94.1528 5.26522 94.8096 5.90561 95.2858 6.77588C95.762 7.62974 96.0001 8.7299 96.0001 10.0764V17.6625H92.1578V10.6675C92.1578 9.60017 91.9197 8.812 91.4435 8.30297C90.9837 7.79394 90.3269 7.53943 89.473 7.53943C88.8655 7.53943 88.3154 7.67079 87.8228 7.93351C87.3466 8.17982 86.9689 8.56569 86.6898 9.09114C86.4271 9.61659 86.2957 10.2898 86.2957 11.1108V17.6625H82.4534V0.421143H86.1233V8.0813L85.4336 6.97293C85.9098 6.08623 86.5913 5.40479 87.478 4.9286C88.3647 4.45242 89.3745 4.21432 90.5075 4.21432Z" fill="#FB2424"/>
<path d="M74.6425 17.6625V0.421204H78.6326V17.6625H74.6425Z" fill="#FB2424"/>
</svg>
